<?xml version="1.0" encoding="utf-8"?><svg xmlns="http://www.w3.org/2000/svg" xmlns:xlink="http://www.w3.org/1999/xlink"><symbol viewBox="0 0 23 18" id="images--arrow" xmlns="http://www.w3.org/2000/svg"><path fill-rule="evenodd" d="M22.911 9.421a1.03 1.03 0 0 1-.228.356l-7.952 7.951a1.02 1.02 0 0 1-1.446 0 1.02 1.02 0 0 1 0-1.444l6.267-6.268H1a1 1 0 0 1 0-2h18.556l-6.271-6.27A1.023 1.023 0 0 1 14.731.298l7.952 7.952c.106.106.179.23.229.362a.989.989 0 0 1 .088.403.995.995 0 0 1-.089.405z"/></symbol><symbol viewBox="0 0 21 46" id="images--arrow-down" xmlns="http://www.w3.org/2000/svg"><g fill-rule="evenodd"><path d="M-706-685H734v7895H-706zM15.048 40.738L10.5 45.5m0 0l-4.518-4.777M10.5 11.5v33"/><path d="M10.5 20a9.5 9.5 0 1 0 0-19 9.5 9.5 0 0 0 0 19z"/></g></symbol><symbol viewBox="0 0 11 19" id="images--facebook-logo" xmlns="http://www.w3.org/2000/svg"><g fill-rule="evenodd"><path d="M-1188-686H252v7895h-1440z"/><path d="M9.91.55L7.527.545c-2.678 0-4.408 1.782-4.408 4.54v2.093H.723a.375.375 0 0 0-.375.377v3.033c0 .207.168.376.375.376h2.396v7.653c0 .208.168.376.375.376H6.62a.375.375 0 0 0 .375-.376v-7.653h2.802a.375.375 0 0 0 .375-.376V7.556a.377.377 0 0 0-.374-.377H6.995V5.405c0-.853.203-1.286 1.31-1.286H9.91a.375.375 0 0 0 .374-.377V.926A.376.376 0 0 0 9.91.549z" fill-rule="nonzero"/></g></symbol><symbol viewBox="0 0 19 18" id="images--linkedin-logo" xmlns="http://www.w3.org/2000/svg"><g fill-rule="evenodd"><path d="M-1253-685H187v7895h-1440z"/><path d="M18.095 11.333v6.624h-3.803v-6.18c0-1.553-.55-2.613-1.927-2.613-1.05 0-1.676.714-1.95 1.405-.101.247-.127.59-.127.937v6.451H6.484s.051-10.468 0-11.552h3.804v1.637l-.025.038h.025v-.038c.505-.786 1.407-1.909 3.428-1.909 2.502 0 4.379 1.651 4.379 5.2zM2.505.836C1.202.836.351 1.698.351 2.832c0 1.108.826 1.997 2.102 1.997h.025c1.327 0 2.152-.888 2.152-1.997C4.606 1.698 3.806.836 2.504.836zM.577 17.957H4.38V6.405H.578v11.552z" fill-rule="nonzero"/></g></symbol><symbol viewBox="0 0 38 38" id="images--login" xmlns="http://www.w3.org/2000/svg"><g fill-rule="evenodd"><path d="M-1207-22H233v7895h-1440z"/><g transform="translate(1 1)"><g fill-rule="nonzero"><path d="M17.556 17.375h.134c1.23-.02 2.224-.436 2.958-1.23 1.616-1.752 1.347-4.754 1.318-5.04-.105-2.152-1.163-3.18-2.035-3.661-.65-.36-1.41-.553-2.258-.569h-.071c-.466 0-1.38.073-2.257.553-.882.48-1.956 1.51-2.06 3.676-.03.287-.299 3.289 1.317 5.04.73.795 1.724 1.21 2.954 1.231zm-3.151-6.17c0-.012.004-.024.004-.032.138-2.894 2.274-3.204 3.189-3.204h.05c1.133.024 3.059.468 3.189 3.204 0 .012 0 .024.004.032.004.028.298 2.772-1.036 4.217-.529.573-1.234.855-2.161.863h-.042c-.923-.008-1.632-.29-2.157-.863-1.33-1.437-1.045-4.193-1.04-4.217z"/><path d="M26.374 22.24v-.012c0-.03-.004-.062-.004-.097-.024-.775-.077-2.586-1.834-3.165l-.04-.012c-1.826-.45-3.343-1.467-3.36-1.479a.558.558 0 0 0-.76.13.516.516 0 0 0 .133.735c.069.047 1.68 1.13 3.695 1.631.943.325 1.049 1.299 1.077 2.19 0 .036 0 .067.004.099.004.352-.02.896-.085 1.209-.656.36-3.226 1.604-7.135 1.604-3.894 0-6.48-1.248-7.14-1.608-.065-.313-.093-.857-.085-1.21 0-.03.004-.062.004-.097.028-.892.133-1.866 1.077-2.19 2.015-.502 3.626-1.59 3.695-1.632a.516.516 0 0 0 .133-.736.558.558 0 0 0-.76-.129c-.017.012-1.526 1.029-3.36 1.479a.523.523 0 0 0-.04.012c-1.757.583-1.81 2.394-1.834 3.165 0 .035 0 .066-.004.097v.012c-.004.204-.008 1.248.207 1.772.04.102.113.188.21.247.121.078 3.032 1.87 7.9 1.87 4.87 0 7.78-1.796 7.901-1.87a.528.528 0 0 0 .21-.247c.203-.52.199-1.564.195-1.768z"/></g><circle cx="18" cy="18" r="18"/></g></g></symbol><symbol viewBox="0 0 200 38" id="images--logo" xmlns="http://www.w3.org/2000/svg"><g fill-rule="evenodd"><path d="M-136-20h1440v7895H-136z"/><path d="M45.62 13.77h1.549v9.497h5.872v1.348h-7.422V13.77m16.044 9.048a3.977 3.977 0 0 0 1.503-1.495c.367-.635.55-1.345.55-2.13 0-.785-.183-1.496-.55-2.13a3.981 3.981 0 0 0-1.503-1.496c-.635-.361-1.35-.542-2.146-.542-.795 0-1.516.18-2.161.542a3.948 3.948 0 0 0-1.519 1.495 4.184 4.184 0 0 0-.55 2.13c0 .786.184 1.496.55 2.13a3.944 3.944 0 0 0 1.519 1.496c.645.362 1.366.542 2.161.542.796 0 1.51-.18 2.146-.542zm-5.105 1.2a5.323 5.323 0 0 1-2.068-1.99c-.502-.847-.752-1.792-.752-2.836 0-1.043.25-1.988.752-2.835.5-.847 1.19-1.51 2.068-1.99.878-.481 1.864-.721 2.959-.721 1.084 0 2.066.24 2.944.72a5.29 5.29 0 0 1 2.06 1.983c.496.842.744 1.79.744 2.843 0 1.054-.248 2.002-.743 2.843a5.287 5.287 0 0 1-2.061 1.984c-.878.48-1.86.72-2.944.72-1.095 0-2.081-.24-2.96-.72zM76.963 13.77v10.845h-1.27l-6.508-8.087v8.087h-1.55V13.77h1.271l6.507 8.087V13.77h1.55m10.767 5.36h1.488v4.23a5.766 5.766 0 0 1-1.875 1.023 7.008 7.008 0 0 1-2.23.356c-1.096 0-2.082-.24-2.96-.72a5.34 5.34 0 0 1-2.069-1.984c-.5-.841-.751-1.789-.751-2.843 0-1.053.25-2.003.751-2.85a5.26 5.26 0 0 1 2.077-1.984c.883-.474 1.877-.712 2.982-.712.868 0 1.655.142 2.363.426.707.284 1.309.7 1.805 1.247l-.96.96c-.868-.836-1.917-1.254-3.146-1.254-.826 0-1.567.178-2.223.534a3.917 3.917 0 0 0-1.542 1.488c-.372.635-.558 1.35-.558 2.145 0 .786.186 1.496.558 2.13a3.97 3.97 0 0 0 1.542 1.496c.656.362 1.392.542 2.208.542.97 0 1.817-.232 2.54-.697V19.13m12.317 4.137v1.348h-7.87V13.77h7.654v1.348h-6.105v3.33h5.438v1.318h-5.438v3.501h6.321m11.776-9.497l-4.757 10.845h-1.534L100.76 13.77h1.674l3.904 8.908 3.935-8.908h1.55m1.378 10.845h1.55V13.77h-1.55zm6.957-9.497h-3.719V13.77h8.971v1.348h-3.718v9.497h-1.534v-9.497"/><path d="M131.127 20.866v3.75h-1.534v-3.781l-4.307-7.065h1.658l3.47 5.717 3.486-5.717h1.534l-4.307 7.096m17.732-5.647h-3.719V13.87h8.97v1.348h-3.717v9.497h-1.534V15.22m13.785 7.823a3.977 3.977 0 0 0 1.503-1.495c.366-.636.55-1.346.55-2.13 0-.786-.184-1.496-.55-2.13a3.98 3.98 0 0 0-1.503-1.496c-.635-.362-1.35-.543-2.146-.543-.795 0-1.516.181-2.161.543a3.947 3.947 0 0 0-1.519 1.495 4.183 4.183 0 0 0-.55 2.13c0 .785.184 1.495.55 2.13a3.944 3.944 0 0 0 1.519 1.496 4.35 4.35 0 0 0 2.16.542c.796 0 1.512-.18 2.147-.542zm-5.105 1.2a5.323 5.323 0 0 1-2.068-1.99c-.502-.847-.752-1.792-.752-2.836 0-1.043.25-1.988.752-2.835.5-.847 1.19-1.51 2.068-1.991.878-.48 1.864-.72 2.959-.72 1.084 0 2.066.24 2.944.72a5.291 5.291 0 0 1 2.06 1.983c.496.842.744 1.79.744 2.843 0 1.054-.248 2.002-.743 2.843a5.288 5.288 0 0 1-2.061 1.983c-.878.48-1.86.72-2.944.72-1.095 0-2.081-.24-2.96-.72zm14.645-4.345l-1.983 2.014v2.804h-1.55V13.871h1.55v6.058l5.888-6.058h1.766l-4.633 4.88 4.927 5.965h-1.812l-4.153-4.818m15.659 3.47v1.348h-7.871V13.871h7.654v1.348h-6.105v3.33h5.439v1.318h-5.439v3.501h6.322m11.905-9.498v10.846h-1.27l-6.507-8.087v8.087h-1.55V13.871h1.27l6.508 8.087v-8.087h1.55M18.904 27.677a8.282 8.282 0 0 1-5.169-1.814 1.72 1.72 0 0 0 .112-.608 1.732 1.732 0 0 0-2.094-1.69 8.238 8.238 0 0 1-1.127-4.166c0-3.965 2.87-7.4 6.729-8.133.282.571.87.966 1.55.966a1.73 1.73 0 0 0 1.55-.966c3.863.732 6.728 4.158 6.728 8.133 0 4.564-3.714 8.278-8.279 8.278zm-6.787-1.928a.495.495 0 1 1 .001-.99.495.495 0 0 1 0 .99zm6.787-15.74a.495.495 0 1 1 0 .989.495.495 0 0 1 0-.99zm1.663.022a1.732 1.732 0 0 0-1.663-1.258c-.79 0-1.457.533-1.663 1.259-4.494.795-7.85 4.77-7.85 9.367 0 1.716.46 3.378 1.328 4.842a1.718 1.718 0 0 0-.331 1.014c0 .954.776 1.73 1.73 1.73.287 0 .558-.072.797-.197a9.519 9.519 0 0 0 5.99 2.125c5.245 0 9.513-4.268 9.513-9.514 0-4.608-3.35-8.573-7.85-9.368z"/><path d="M23.353 19.77a.495.495 0 1 1 0-.99.495.495 0 0 1 0 .99zm-4.449 3.459a3.835 3.835 0 0 1-3.83-3.83 3.835 3.835 0 0 1 3.83-3.83 3.85 3.85 0 0 1 3.494 2.265 1.728 1.728 0 0 0 .084 2.934 3.853 3.853 0 0 1-3.578 2.461zm4.724-5.66a5.091 5.091 0 0 0-4.724-3.236 5.072 5.072 0 0 0-5.065 5.066 5.072 5.072 0 0 0 5.065 5.066 5.092 5.092 0 0 0 4.815-3.5 1.732 1.732 0 0 0 1.363-1.69c0-.86-.63-1.573-1.454-1.706z"/><path d="M34.923 26.861a.495.495 0 1 1 0-.99.495.495 0 0 1 0 .99zm-16.39 9.712c-4.148 0-8.126-1.48-11.261-4.173.072-.19.114-.396.114-.612a1.732 1.732 0 0 0-2.296-1.633 17.296 17.296 0 0 1-3.854-10.88c0-3.296.928-6.487 2.683-9.253a1.732 1.732 0 0 0 2.107-1.687c0-.286-.07-.556-.195-.795a17.324 17.324 0 0 1 12.703-5.563c.987 0 1.974.089 2.942.254a1.728 1.728 0 1 0 3.034.809 17.32 17.32 0 0 1 11.322 16.235 17.26 17.26 0 0 1-.852 5.365c-.02 0-.038-.003-.057-.003-.954 0-1.73.777-1.73 1.73 0 .478.195.912.51 1.225a17.243 17.243 0 0 1-15.17 8.981zm-12.877-4.29a.495.495 0 1 1 .001-.99.495.495 0 0 1-.001.99zM4.296 7.84a.495.495 0 1 1 0 .99.495.495 0 0 1 0-.99zm18.883-6.4a.495.495 0 1 1-.001.99.495.495 0 0 1 0-.99zM36.12 25.124c.626-1.88.947-3.845.947-5.848 0-7.778-4.879-14.74-12.163-17.406A1.73 1.73 0 0 0 23.179.206c-.617 0-1.158.326-1.465.813a18.72 18.72 0 0 0-3.18-.278A18.56 18.56 0 0 0 4.908 6.72a1.716 1.716 0 0 0-.611-.114c-.954 0-1.73.776-1.73 1.73 0 .374.12.72.323 1.003A18.45 18.45 0 0 0 0 19.275c0 4.257 1.47 8.38 4.144 11.675a1.732 1.732 0 0 0 1.512 2.569c.286 0 .557-.072.795-.196a18.484 18.484 0 0 0 12.083 4.486 18.475 18.475 0 0 0 16.303-9.716c.028.001.057.004.086.004.954 0 1.73-.776 1.73-1.73 0-.488-.205-.93-.532-1.244z"/><path d="M26.619 29.453a1.73 1.73 0 0 0-2.599 1.06c-.04.169-.05.341-.04.512a12.726 12.726 0 0 1-5.2 1.1c-6.46 0-11.96-4.902-12.75-11.256a1.732 1.732 0 0 0 .002-3.188c.792-6.443 6.204-11.256 12.749-11.256a12.7 12.7 0 0 1 7.623 2.505 1.719 1.719 0 0 0 .158 1.474 1.718 1.718 0 0 0 1.479.827c.223 0 .444-.045.652-.131a12.824 12.824 0 0 1 2.938 8.175c0 4.029-1.826 7.724-5.012 10.178zm-.436 1.581a.496.496 0 0 1-.597.365.492.492 0 0 1-.334-.276.495.495 0 1 1 .93-.089zM5.359 18.781a.495.495 0 1 1-.001.99.495.495 0 0 1 .001-.99zm22.42-9.701a.49.49 0 0 1 .374-.06.492.492 0 0 1 .365.597.49.49 0 0 1-.596.365.491.491 0 0 1-.365-.596.49.49 0 0 1 .222-.306zm1.94.826a1.72 1.72 0 0 0-.206-1.308 1.718 1.718 0 0 0-1.071-.779 1.714 1.714 0 0 0-1.238.168 14.127 14.127 0 0 0-8.423-2.798c-3.531 0-6.91 1.313-9.512 3.697a14.042 14.042 0 0 0-4.476 8.756 1.731 1.731 0 0 0-1.164 1.633c0 .755.487 1.397 1.163 1.633a14.036 14.036 0 0 0 4.421 8.705 14.041 14.041 0 0 0 9.568 3.748c1.992 0 3.909-.41 5.708-1.21a1.72 1.72 0 0 0 1.213.498c.78 0 1.491-.534 1.682-1.326.072-.302.06-.604-.022-.883a14.155 14.155 0 0 0 5.505-11.165c0-3.31-1.16-6.493-3.272-9.022.053-.11.095-.226.124-.347z"/></g></symbol><symbol viewBox="0 0 41.999 41.999" id="images--play-button" xmlns="http://www.w3.org/2000/svg"><path d="M36.068 20.176l-29-20A1 1 0 1 0 5.5.999v40a1 1 0 0 0 1.568.823l29-20a.999.999 0 0 0 0-1.646z"/></symbol><symbol viewBox="0 0 1474 783" id="images--roadmap" xmlns="http://www.w3.org/2000/svg"><g opacity=".1"><path d="M159.949 218.727a.29.29 0 0 0-.38.276c.031 1.2.067 2.456.09 3.57.11 5.27-2.357 10.233-6.606 13.284-4.248 3.052-9.74 3.805-14.701 2.017-4.44-1.605-8.855-3.255-13.303-4.832-4.582-1.616-9.036-1.392-13.16 1.282-.462.317-.598.94-.313 1.429.285.489.895.68 1.4.436l.023-.016a14.988 14.988 0 0 1 12.467-.679c3.962 1.415 8.114 2.527 11.87 4.407 11.02 5.503 26.84-4.31 24.386-19.464a5.773 5.773 0 0 0-.158-.859.725.725 0 0 0-.491-.501l-1.124-.35z"/><path d="M179.765 217.044c-4.597 2.307-9.229 2.402-14.066.438-3.554-1.434-5.874-2-9.65-3.624-11.582-5.54-27.718 3.021-25.324 18.843l.06.373c.04.356.285.66.625.772.303.11.586.198.846.296.13.044.271.023.38-.056a.417.417 0 0 0 .171-.344c-.004-1.116-.015-2.234-.015-3.353.005-11.814 10.204-18.966 21.335-14.927 4.505 1.632 8.98 3.358 13.493 4.963 4.397 1.629 9.259 1.07 13.095-1.504.066-.038.127-.083.184-.134a1.04 1.04 0 0 0 .176-1.352 1.046 1.046 0 0 0-1.31-.391z"/><path d="M160.628 213.528a.613.613 0 0 0 .703-.627 82.293 82.293 0 0 0-.048-1.203c-.444-6.125.218-10.348 5.265-14.488l.085-.062c.292-.39.286-.928-.015-1.314a1.082 1.082 0 0 0-1.27-.335.49.49 0 0 0-.11.079c-5.227 3.463-7.798 10.68-6.072 16.705.054.191.099.385.132.581a.756.756 0 0 0 .676.601 5.5 5.5 0 0 1 .654.063zm-29.498 25.474c.131 6.702.498 11.41-4.508 15.664a1.87 1.87 0 0 0-.337.49.89.89 0 0 0 .044.91.897.897 0 0 0 .818.409l.027-.02c4.554-2.31 6.335-8.192 5.994-13.751a28.037 28.037 0 0 0-.356-3.101c-.104-.592-.65-.562-1.43-.814a.21.21 0 0 0-.253.213z"/><path d="M119.38 236.297l.81-.588 8.817 12.135-.81.588zm5.588.885l.809-.588 4.115 5.663-.81.588zm38.909-33.213l.809-.588 8.817 12.135-.81.588zm-.885 5.587l.809-.588 4.114 5.663-.809.588zm-20.516 7.489l.809-.588 10.58 14.563-.81.588zm4.411-.733l.81-.588 8.816 12.136-.809.587zm4.779 1.473l.809-.588 4.114 5.663-.809.588zm-13.236 2.199l.81-.588 10.58 14.563-.81.587zm-2.06 3.969l.81-.587 8.816 12.135-.81.588zm-.885 5.587l.81-.587 4.114 5.663-.81.588z"/></g><g opacity=".164"><path d="M72.078 443.983a.29.29 0 0 0-.314-.349c-1.19.157-2.436.323-3.54.463-5.232.66-10.425-1.275-13.903-5.181-3.479-3.907-4.802-9.29-3.543-14.41 1.132-4.583 2.312-9.147 3.415-13.736 1.128-4.725.44-9.132-2.65-12.953a1.074 1.074 0 0 0-1.454-.162 1.08 1.08 0 0 0-.288 1.437l.02.021a14.988 14.988 0 0 1 1.977 12.328c-.992 4.089-1.664 8.334-3.141 12.266-4.322 11.534 7.091 26.243 21.906 22.218.284-.061.564-.143.837-.247a.725.725 0 0 0 .448-.541l.23-1.154z"/><path d="M75.824 463.515c-2.775-4.33-3.354-8.928-1.907-13.944 1.055-3.684 1.375-6.05 2.596-9.976 4.299-12.098-5.902-27.25-21.388-23.215l-.364.099a.922.922 0 0 0-.703.701c-.076.314-.135.604-.205.873a.417.417 0 0 0 .095.372c.09.1.225.15.36.134 1.11-.12 2.22-.249 3.333-.365 11.75-1.23 19.93 8.166 17.075 19.658-1.152 4.65-2.4 9.281-3.525 13.937-1.16 4.544-.097 9.32 2.865 12.867.044.061.095.118.152.168.375.35.957.364 1.363.034.407-.33.515-.903.253-1.343z"/><path d="M77.32 444.115a.613.613 0 0 0 .697.634c.478-.068 1.04-.148 1.19-.173 6.046-1.083 10.315-.866 14.96 3.72l.07.079a1.084 1.084 0 0 0 1.506-1.452.49.49 0 0 0-.09-.1c-3.99-4.836-11.437-6.639-17.248-4.292a5.644 5.644 0 0 1-.564.192.756.756 0 0 0-.527.735 5.5 5.5 0 0 1 .005.657zM48.902 417.44c-6.652.832-11.296 1.69-16.05-2.844a1.87 1.87 0 0 0-.522-.285.89.89 0 0 0-.9.14.897.897 0 0 0-.322.855l.023.025c2.774 4.288 8.809 5.444 14.302 4.524a28.037 28.037 0 0 0 3.047-.678c.578-.166.49-.705.66-1.506a.21.21 0 0 0-.238-.23z"/><path d="M50.364 405.474l.67.743-11.148 10.037-.67-.743zm-.296 5.649l.669.743-5.202 4.684-.67-.743zm37.098 35.224l.67.743-11.148 10.037-.669-.743zm-5.649-.297l.67.744-5.203 4.684-.669-.744zm-9.593-19.62l.67.743-13.377 12.044-.67-.743zm1.19 4.31l.67.744-11.148 10.037-.669-.743zm-.964 4.907l.668.743-5.202 4.684-.669-.744zm-3.571-12.933l.669.743-13.377 12.045-.67-.744zm-4.163-1.634l.669.743-11.147 10.037-.67-.743zm-5.649-.296l.669.743-5.202 4.684-.67-.743z"/></g><g opacity=".164"><path d="M1180.078 46.983a.29.29 0 0 0-.314-.349c-1.19.157-2.436.323-3.54.463-5.232.66-10.425-1.275-13.903-5.181-3.479-3.907-4.802-9.29-3.543-14.41 1.132-4.583 2.312-9.147 3.415-13.736 1.128-4.725.44-9.132-2.65-12.953a1.074 1.074 0 0 0-1.454-.162 1.08 1.08 0 0 0-.288 1.437l.02.021a14.988 14.988 0 0 1 1.977 12.328c-.992 4.089-1.664 8.334-3.141 12.266-4.322 11.534 7.091 26.243 21.906 22.218.284-.061.564-.143.837-.247a.725.725 0 0 0 .448-.541l.23-1.154z"/><path d="M1183.824 66.515c-2.775-4.33-3.354-8.928-1.907-13.944 1.055-3.684 1.375-6.05 2.596-9.976 4.299-12.098-5.902-27.25-21.388-23.215l-.364.099a.922.922 0 0 0-.703.701c-.076.314-.135.604-.205.873a.417.417 0 0 0 .095.372c.09.1.225.15.36.134 1.11-.12 2.22-.249 3.333-.365 11.75-1.23 19.93 8.166 17.075 19.658-1.152 4.65-2.4 9.281-3.525 13.937-1.16 4.544-.097 9.32 2.865 12.867.044.061.095.118.152.168.375.35.957.364 1.363.034.407-.33.515-.903.253-1.343z"/><path d="M1185.32 47.115a.613.613 0 0 0 .697.634c.478-.068 1.04-.148 1.19-.173 6.046-1.083 10.315-.866 14.96 3.72l.07.079a1.084 1.084 0 0 0 1.506-1.452.49.49 0 0 0-.09-.1c-3.99-4.836-11.437-6.639-17.248-4.292a5.644 5.644 0 0 1-.564.192.756.756 0 0 0-.527.735 5.5 5.5 0 0 1 .005.657zm-28.418-26.675c-6.652.832-11.296 1.69-16.05-2.844a1.87 1.87 0 0 0-.522-.285.89.89 0 0 0-.9.14.897.897 0 0 0-.322.855l.023.025c2.774 4.288 8.809 5.444 14.302 4.524a28.037 28.037 0 0 0 3.047-.678c.578-.166.49-.705.66-1.506a.21.21 0 0 0-.238-.23z"/><path d="M1158.364 8.474l.67.743-11.148 10.037-.67-.743zm-.296 5.649l.669.743-5.202 4.684-.67-.743zm37.098 35.224l.67.743-11.148 10.037-.669-.743zm-5.649-.297l.67.744-5.203 4.684-.669-.744zm-9.593-19.62l.67.743-13.377 12.044-.67-.743zm1.19 4.31l.67.744-11.148 10.037-.669-.743zm-.964 4.907l.668.743-5.202 4.684-.669-.744zm-3.571-12.933l.669.743-13.377 12.045-.67-.744zm-4.163-1.634l.669.743-11.147 10.037-.67-.743zm-5.649-.296l.669.743-5.202 4.684-.67-.743z"/></g><g opacity=".1"><path d="M241.994 468.422a.343.343 0 0 0-.554 0c-.803 1.167-1.64 2.388-2.389 3.466-3.551 5.103-9.35 8.125-15.521 8.091-6.172-.034-11.937-3.12-15.433-8.261-3.125-4.606-6.197-9.239-9.349-13.824-3.253-4.714-7.66-7.587-13.452-7.894a1.267 1.267 0 0 0-1.29 1.146 1.274 1.274 0 0 0 1.034 1.386h.033a17.688 17.688 0 0 1 12.373 7.99c2.8 4.093 5.993 8.03 8.275 12.424 6.702 12.881 28.612 14.485 36.78-1.665a6.8 6.8 0 0 0 .445-.928.853.853 0 0 0-.122-.819l-.83-1.112z"/><path d="M262.019 480.545c-5.989-.985-10.477-4.103-13.732-9.327-2.398-3.829-4.22-5.976-6.699-10.14-7.214-13.306-28.556-16.321-37.245.424l-.2.397c-.21.367-.187.826.06 1.169.214.314.422.595.603.868a.493.493 0 0 0 .804 0c.77-1.066 1.534-2.14 2.31-3.207 8.2-11.261 22.897-11.015 30.72.547 3.17 4.677 6.244 9.423 9.44 14.08 3.067 4.599 8.096 7.434 13.544 7.637.089.01.179.01.268 0a1.226 1.226 0 0 0 1.106-1.168 1.233 1.233 0 0 0-.979-1.28z"/><path d="M245.847 463.795a.676.676 0 0 0 1.055-.11c.303-.467.66-1.016.751-1.168 3.646-6.086 7.041-9.618 14.372-10.064h.118a1.26 1.26 0 0 0 .856-1.251 1.252 1.252 0 0 0-.935-1.188.532.532 0 0 0-.151 0c-7.048-.316-14.16 4.733-16.574 11.603a6.99 6.99 0 0 1-.263.64.905.905 0 0 0 .217 1.03c.211.172.402.35.554.508zm-45.15 4.315c-4.599 6.416-7.564 11.111-15.424 11.694a2.288 2.288 0 0 0-.672.23 1.039 1.039 0 1 0-.094 1.836h.04c6.052.942 11.928-3.387 15.518-8.868a32.473 32.473 0 0 0 1.843-3.171c.316-.63-.236-.976-.814-1.748a.254.254 0 0 0-.397.027z"/><path d="M191 457h1v18h-1zm5 5h1v8h-1zm65-7h1v22h-1zm-5 2h1v18h-1zm-4 5h1v8h-1zm-26-7h1v22h-1zm5 2h1v18h-1zm4 5h1v8h-1zm-15-7h1v22h-1zm-5 2h1v18h-1zm-4 5h1v8h-1z"/></g><g opacity=".1"><path d="M45.203 693.438a.267.267 0 0 0-.429-.007c-.638.884-1.304 1.81-1.899 2.626a14.618 14.618 0 0 1-23.997-.55c-2.361-3.574-4.68-7.17-7.063-10.729-2.459-3.66-5.838-5.923-10.324-6.236a.979.979 0 0 0-.232 1.938h.026a13.729 13.729 0 0 1 9.485 6.296c2.117 3.177 4.54 6.24 6.25 9.641 5.024 9.971 21.989 11.497 28.537-.779.137-.226.257-.462.358-.706a.649.649 0 0 0-.083-.63l-.629-.864z"/><path d="M61.095 703.102c-4.666-.836-8.13-3.283-10.604-7.326-1.822-2.963-3.217-4.63-5.097-7.852-5.459-10.282-22.091-12.88-29.102-.183l-.163.3a.816.816 0 0 0 .032.896c.163.244.322.461.46.673a.387.387 0 0 0 .627.011c.616-.806 1.227-1.617 1.848-2.423 6.556-8.507 18.035-8.118 23.992.838 2.413 3.623 4.752 7.296 7.186 10.904a13.394 13.394 0 0 0 10.48 6.03c.069.008.139.01.209.003a.947.947 0 0 0 .132-1.871z"/><path d="M48.632 690.446a.55.55 0 0 0 .839-.069c.247-.351.536-.765.612-.879 2.975-4.586 5.717-7.229 11.542-7.467l.094.001a.963.963 0 0 0-.03-1.859.44.44 0 0 0-.12-.002c-5.59-.338-11.305 3.41-13.311 8.61a5.004 5.004 0 0 1-.218.482.67.67 0 0 0 .159.788c.165.134.315.273.433.395zm-35.379 2.225c-3.666 4.894-6.037 8.48-12.162 8.823a1.79 1.79 0 0 0-.527.169.8.8 0 0 0-.098 1.417h.032c4.697.81 9.329-2.454 12.197-6.639a25.04 25.04 0 0 0 1.477-2.424c.254-.482-.17-.757-.61-1.361a.199.199 0 0 0-.309.015zm-10.987-9.913l1 .018-.29 16.615-1-.017z"/><path d="M6.137 684.396l1 .018-.235 13.48-1-.017zm3.314 3.854l1 .017-.103 5.887-1-.017zm46.924-2.977l1 .018-.235 13.48-1-.017zm-3.441 3.736l1 .017-.103 5.887-1-.017zM32.9 683.293l1 .018-.29 16.615-1-.017zm3.872 1.637l1 .018-.235 13.481-1-.017zm3.315 3.854l1 .018-.103 5.887-1-.018zm-11.509-5.566l1 .017-.29 16.616-1-.018zm-3.926 1.502l1 .017-.235 13.48-1-.017zm-3.447 3.735l1 .017-.102 5.887-1-.017z"/></g><g opacity=".112"><path d="M1344.368 188.982a.24.24 0 0 0-.337-.187c-.879.432-1.796.885-2.612 1.281a13.125 13.125 0 0 1-18.791-10.55c-.366-3.829-.689-7.656-1.077-11.482-.407-3.938-2.131-7.156-5.555-9.296a.879.879 0 0 0-1.002 1.439l.02.011a12.326 12.326 0 0 1 4.867 8.989c.338 3.411.968 6.86.89 10.277-.22 10.022 12.585 18.382 22.95 11.41.204-.12.399-.257.582-.408a.583.583 0 0 0 .2-.534l-.135-.95z"/><path d="M1352.892 203.34c-3.346-2.628-5.06-6.029-5.318-10.276-.195-3.117-.598-5.027-.73-8.373.006-10.452-12.083-19.522-22.993-12.412l-.256.17a.733.733 0 0 0-.352.724c.026.261.06.5.08.726a.348.348 0 0 0 .494.274c.828-.38 1.654-.765 2.486-1.142 8.783-3.98 17.718 1.166 18.666 10.777.385 3.888.69 7.786 1.1 11.672a12.025 12.025 0 0 0 5.765 9.197.883.883 0 0 0 .165.091.85.85 0 0 0 .893-1.428z"/><path d="M1348.347 188.055a.493.493 0 0 0 .694.299c.344-.175.748-.38.856-.44 4.291-2.38 7.579-3.32 12.297-1.054l.074.041a.865.865 0 0 0 .76-1.486.395.395 0 0 0-.095-.053c-4.289-2.624-10.398-2.061-14.18 1.215-.12.103-.246.2-.377.29a.601.601 0 0 0-.206.693c.075.175.135.348.177.495zm-28.983-13.148c-4.969 2.334-8.36 4.177-13.36 1.868a1.607 1.607 0 0 0-.489-.089.719.719 0 0 0-.675 1.082l.025.014c3.382 2.622 8.43 1.987 12.468-.122a22.48 22.48 0 0 0 2.192-1.3c.405-.274.184-.67.09-1.335a.179.179 0 0 0-.251-.118z"/><path d="M1317.21 165.348l.875.485-5.868 10.587-.875-.485zm1.003 4.452l.875.484-2.563 4.623-.874-.484zm38.453 17.418l.874.485-5.868 10.587-.875-.484zm-4.303 1.511l.875.484-2.563 4.624-.875-.485zm-13.472-12.975l.875.484-7.233 13.05-.875-.485zm2.379 2.93l.874.485-5.868 10.587-.875-.485zm1.003 4.452l.875.485-2.563 4.623-.874-.485zm-6.776-9.264l.875.485-7.234 13.05-.874-.486zm-3.746-.464l.875.485-5.869 10.587-.874-.485zm-4.306 1.508l.875.485-2.563 4.624-.875-.485z"/></g><g opacity=".141"><path d="M1116.445 236.828a.27.27 0 0 0-.393.183c-.188 1.085-.382 2.22-.56 3.224a14.76 14.76 0 0 1-22.022 10.123c-3.725-2.199-7.421-4.435-11.159-6.61-3.852-2.234-7.92-2.792-12.13-1.09a.988.988 0 0 0 .647 1.861l.024-.011a13.862 13.862 0 0 1 11.395 1.515c3.328 1.947 6.882 3.654 9.939 5.983 8.973 6.826 25.045.701 25.554-13.338.025-.266.029-.533.012-.8a.655.655 0 0 0-.354-.534l-.953-.506z"/><path d="M1135.144 238.564c-4.603 1.307-8.83.62-12.865-1.955-2.965-1.882-4.97-2.779-8.102-4.87-9.505-6.915-25.75-1.911-26.492 12.716l-.014.345a.824.824 0 0 0 .425.799c.256.148.496.275.715.407a.391.391 0 0 0 .574-.268c.203-1.004.398-2.01.605-3.017 2.184-10.623 12.773-15.35 22.144-9.86 3.794 2.22 7.542 4.519 11.348 6.715a13.524 13.524 0 0 0 12.18.834.994.994 0 0 0 .191-.089.957.957 0 0 0-.709-1.757z"/><path d="M1118.232 232.595a.555.555 0 0 0 .73-.434c.07-.428.15-.932.167-1.069.67-5.478 1.989-9.09 7.17-11.885l.086-.04a.972.972 0 0 0-.85-1.674.444.444 0 0 0-.11.051c-5.224 2.167-8.75 8.098-8.27 13.705.015.178.02.356.017.535.002.3.203.563.493.644.209.049.406.108.567.167zm-31.122 17.679c-1.161 6.064-1.726 10.368-7.133 13.39-.153.108-.29.238-.403.387a.809.809 0 0 0 .538 1.33l.03-.014c4.62-1.344 7.38-6.357 8.13-11.425.143-.945.232-1.898.267-2.853.018-.55-.489-.612-1.155-.966a.2.2 0 0 0-.274.151z"/><path d="M1076.989 245.915l.906-.423 5.754 12.339-.907.422zm4.713 2.029l.906-.422 2.513 5.388-.906.422zm41.268-23.471l.907-.422 5.753 12.338-.906.423zm-1.47 4.913l.906-.422 2.513 5.388-.907.422zm-20.71 3.68l.906-.422 7.091 15.207-.906.422zm4.238-.226l.907-.423 5.753 12.339-.906.422zm4.713 2.03l.907-.423 2.512 5.388-.906.422zm-12.908.042l.906-.423 7.091 15.207-.906.423zm-2.898 3.101l.906-.423 5.754 12.339-.906.422zm-1.475 4.915l.906-.423 2.513 5.388-.907.423z"/></g><g opacity=".141"><path d="M328.445 38.828a.27.27 0 0 0-.393.183c-.188 1.085-.382 2.22-.56 3.224a14.76 14.76 0 0 1-22.022 10.123c-3.725-2.199-7.421-4.435-11.159-6.61-3.852-2.234-7.92-2.792-12.13-1.09a.988.988 0 0 0 .647 1.861l.024-.011a13.862 13.862 0 0 1 11.395 1.515c3.328 1.947 6.882 3.654 9.939 5.983 8.973 6.826 25.045.701 25.554-13.338.025-.266.029-.533.012-.8a.655.655 0 0 0-.354-.534l-.953-.506z"/><path d="M347.144 40.564c-4.603 1.307-8.83.62-12.865-1.955-2.965-1.882-4.97-2.779-8.102-4.87-9.505-6.915-25.75-1.911-26.492 12.716l-.014.345a.824.824 0 0 0 .425.799c.256.148.496.275.715.407a.391.391 0 0 0 .574-.268c.203-1.004.398-2.01.605-3.017 2.184-10.623 12.773-15.35 22.144-9.86 3.794 2.22 7.542 4.519 11.348 6.715a13.524 13.524 0 0 0 12.18.834.994.994 0 0 0 .191-.089.957.957 0 0 0-.709-1.757z"/><path d="M330.232 34.595a.555.555 0 0 0 .73-.434c.07-.428.15-.932.167-1.069.67-5.478 1.989-9.09 7.17-11.885l.086-.04a.972.972 0 0 0-.85-1.674.444.444 0 0 0-.11.051c-5.224 2.167-8.75 8.098-8.27 13.705.015.178.02.356.017.535.002.3.203.563.493.644.209.049.406.108.567.167zM299.11 52.274c-1.161 6.064-1.726 10.368-7.133 13.39-.153.108-.29.238-.403.387a.809.809 0 0 0 .538 1.33l.03-.014c4.62-1.344 7.38-6.357 8.13-11.425.143-.945.232-1.898.267-2.853.018-.55-.489-.612-1.155-.966a.2.2 0 0 0-.274.151z"/><path d="M288.989 47.915l.906-.423 5.754 12.339-.907.422zm4.713 2.029l.906-.422 2.513 5.388-.906.422zm41.268-23.471l.907-.422 5.753 12.338-.906.423zm-1.47 4.913l.906-.422 2.513 5.388-.907.422zm-20.71 3.68l.906-.422 7.091 15.207-.906.422zm4.238-.226l.907-.423 5.753 12.339-.906.422zm4.713 2.03l.907-.423 2.512 5.388-.906.422zm-12.908.042l.906-.423 7.091 15.207-.906.423zm-2.898 3.101l.906-.423 5.754 12.339-.906.422zm-1.475 4.915l.906-.423 2.513 5.388-.907.423z"/></g><g opacity=".1"><path d="M306.263 726.455a.332.332 0 0 0 .29.448c1.358.043 2.776.086 4.033.132a18.2 18.2 0 0 1 16.139 25.15c-2.046 4.926-4.142 9.822-6.157 14.759-2.065 5.086-2.049 10.149.75 14.998a1.219 1.219 0 0 0 2.163-1.11l-.018-.027a17.092 17.092 0 0 1-.106-14.173c1.806-4.397 3.281-9.03 5.6-13.162 6.794-12.127-3.441-30.7-20.67-28.912a6.464 6.464 0 0 0-.978.122.808.808 0 0 0-.592.524l-.454 1.25z"/><path d="M305.173 703.325c2.386 5.397 2.272 10.677-.179 16.044-1.79 3.944-2.54 6.545-4.555 10.728-6.812 12.792 2.084 31.768 20.07 30.164l.424-.041c.405-.02.76-.277.903-.656.138-.339.252-.654.374-.943a.482.482 0 0 0-.426-.656c-1.26-.075-2.523-.14-3.787-.22-13.344-.845-20.934-12.962-15.838-25.346 2.06-5.013 4.223-9.984 6.252-15.008a16.675 16.675 0 0 0-1.072-15.014 1.225 1.225 0 0 0-.142-.218 1.18 1.18 0 0 0-2.024 1.166z"/><path d="M300.788 724.999a.684.684 0 0 0-.656-.818 91.027 91.027 0 0 0-1.333-.02c-6.805.123-11.441-.867-15.743-6.714l-.064-.098a1.199 1.199 0 0 0-1.897 1.326.547.547 0 0 0 .082.125c3.542 6.005 11.388 9.293 18.152 7.745a6.23 6.23 0 0 1 .65-.112.834.834 0 0 0 .702-.712c.023-.264.063-.515.107-.722zm26.926 34.966c7.603.377 12.955.328 17.573 6.411.157.17.34.313.541.426a.997.997 0 0 0 1.53-.885l-.02-.033c-2.435-5.412-9.029-7.92-15.345-7.968a31.173 31.173 0 0 0-3.53.164c-.675.073-.663.702-.98 1.577a.248.248 0 0 0 .23.308zm-2.582 18.241l-.545-.838 17.351-11.268.545.838z"/><path d="M324.128 773.07l-.545-.838 14.077-9.142.545.839zm1.669-6.103l-.545-.839 6.148-3.992.545.838zm-35.739-46.359l-.545-.84 14.077-9.14.545.838zm6.251.952l-.545-.839 6.148-3.993.545.839zm8.048 24.655l-.545-.838 17.351-11.268.545.838zm-1.005-5.135l-.544-.84 14.077-9.14.545.838zm1.669-6.104l-.544-.839 6.148-3.993.545.84zm2.267 15.753l-.545-.839 17.351-11.268.545.839zm4.284 3.007l-.545-.839 14.077-9.142.545.84zm6.254.957l-.545-.839 6.149-3.992.544.838z"/></g><g opacity=".1"><path d="M457.113 160.19a.303.303 0 0 0-.488 0c-.707 1.024-1.445 2.098-2.105 3.045a16.576 16.576 0 0 1-13.68 7.11 16.58 16.58 0 0 1-13.602-7.26c-2.755-4.047-5.461-8.118-8.24-12.147-2.867-4.144-6.751-6.668-11.856-6.938a1.115 1.115 0 0 0-1.136 1.007 1.12 1.12 0 0 0 .91 1.218h.03c4.472.64 8.449 3.2 10.904 7.021 2.47 3.597 5.283 7.057 7.294 10.918 5.907 11.32 25.217 12.73 32.415-1.463a5.82 5.82 0 0 0 .393-.815.748.748 0 0 0-.107-.72l-.732-.977z"/><path d="M476.119 170.842c-5.38-.865-9.412-3.605-12.336-8.196-2.154-3.365-3.791-5.251-6.017-8.91-6.481-11.694-25.653-14.344-33.457.372l-.181.348a.936.936 0 0 0 .054 1.028c.193.276.38.523.542.763a.445.445 0 0 0 .722 0c.692-.937 1.378-1.88 2.076-2.818 7.365-9.897 20.568-9.68 27.596.48 2.846 4.11 5.608 8.28 8.478 12.373a15.404 15.404 0 0 0 12.168 6.712c.08.008.16.008.24 0a1.088 1.088 0 0 0 .115-2.152z"/><path d="M460.753 155.825a.613.613 0 0 0 .938-.095c.27-.4.586-.871.668-1 3.24-5.218 6.258-8.245 12.774-8.628h.106c.465-.143.777-.583.76-1.072a1.082 1.082 0 0 0-.83-1.018.49.49 0 0 0-.135 0c-6.265-.27-12.588 4.057-14.732 9.946-.069.186-.147.37-.235.547a.756.756 0 0 0 .194.884c.187.147.357.3.492.436zm-39.911 3.269c-4.088 5.5-6.723 9.524-13.71 10.024a2.09 2.09 0 0 0-.598.197.889.889 0 0 0-.533.763.883.883 0 0 0 .45.811h.035c5.38.807 10.603-2.904 13.794-7.602a27.611 27.611 0 0 0 1.638-2.718c.28-.54-.21-.836-.723-1.498a.23.23 0 0 0-.353.023z"/><path d="M413 150h1v15h-1zm3 5h1v7h-1zm54-5h1v15h-1zm-4 5h1v7h-1zm-23-7h1v19h-1zm5 2h1v15h-1zm3 5h1v7h-1zm-13-7h1v19h-1zm-4 2h1v15h-1zm-4 5h1v7h-1z"/></g><g opacity=".1"><path d="M903.113 71.19a.303.303 0 0 0-.488 0c-.707 1.024-1.445 2.098-2.105 3.045a16.576 16.576 0 0 1-13.68 7.11 16.58 16.58 0 0 1-13.602-7.26c-2.755-4.047-5.461-8.118-8.24-12.147-2.867-4.144-6.751-6.668-11.856-6.938a1.115 1.115 0 0 0-1.136 1.007 1.12 1.12 0 0 0 .91 1.218h.03c4.472.64 8.449 3.2 10.904 7.021 2.47 3.597 5.283 7.057 7.294 10.918 5.907 11.32 25.217 12.73 32.415-1.463a5.82 5.82 0 0 0 .393-.815.748.748 0 0 0-.107-.72l-.732-.977z"/><path d="M922.119 81.842c-5.38-.865-9.412-3.605-12.336-8.196-2.154-3.365-3.791-5.251-6.017-8.91-6.481-11.694-25.653-14.344-33.457.372l-.181.348a.936.936 0 0 0 .054 1.028c.193.276.38.523.542.763a.445.445 0 0 0 .722 0c.692-.937 1.378-1.88 2.076-2.818 7.365-9.897 20.568-9.68 27.596.48 2.846 4.11 5.608 8.28 8.478 12.373a15.404 15.404 0 0 0 12.168 6.712c.08.008.16.008.24 0a1.088 1.088 0 0 0 .115-2.152z"/><path d="M906.753 66.825a.613.613 0 0 0 .938-.095c.27-.4.586-.871.668-1 3.24-5.218 6.258-8.245 12.774-8.628h.106c.465-.143.777-.583.76-1.072a1.082 1.082 0 0 0-.83-1.018.49.49 0 0 0-.135 0c-6.265-.27-12.588 4.057-14.732 9.946-.069.186-.147.37-.235.547a.756.756 0 0 0 .194.884c.187.147.357.3.492.436zm-39.911 3.269c-4.088 5.5-6.723 9.524-13.71 10.024a2.09 2.09 0 0 0-.598.197.889.889 0 0 0-.533.763.883.883 0 0 0 .45.811h.035c5.38.807 10.603-2.904 13.794-7.602a27.611 27.611 0 0 0 1.638-2.718c.28-.54-.21-.836-.723-1.498a.23.23 0 0 0-.353.023z"/><path d="M859 61h1v15h-1zm3 5h1v7h-1zm54-5h1v15h-1zm-4 5h1v7h-1zm-23-7h1v19h-1zm5 2h1v15h-1zm3 5h1v7h-1zm-13-7h1v19h-1zm-4 2h1v15h-1zm-4 5h1v7h-1z"/></g><g opacity=".116"><path d="M611.474 678.862a.35.35 0 0 0-.419-.377c-1.394.326-2.851.67-4.145.967a19.2 19.2 0 0 1-23.313-21.223c.74-5.578 1.538-11.14 2.244-16.72.716-5.747-.684-10.902-4.86-15.078a1.285 1.285 0 0 0-1.9 1.72l.025.023c3.35 4.003 4.8 9.26 3.978 14.414-.64 4.974-.878 10.097-2.113 14.942-3.612 14.212 11.89 30.344 28.959 23.818a6.82 6.82 0 0 0 .962-.392.852.852 0 0 0 .46-.695l.122-1.399z"/><path d="M618.9 702.134c-3.905-4.848-5.23-10.26-4.199-16.398.747-4.507.802-7.362 1.713-12.176 3.45-14.895-10.798-31.803-28.689-25.258l-.42.159c-.407.13-.698.49-.74.915-.049.382-.079.734-.125 1.062a.509.509 0 0 0 .613.552c1.305-.268 2.61-.545 3.92-.809 13.829-2.783 24.871 7.493 23.06 21.504-.73 5.67-1.577 11.326-2.273 17a17.591 17.591 0 0 0 5.191 15.006c.062.069.13.13.205.184a1.244 1.244 0 0 0 1.744-1.741z"/><path d="M617.45 678.85a.722.722 0 0 0 .892.655 96.031 96.031 0 0 0 1.364-.344c6.9-1.983 11.896-2.24 17.875 2.543l.092.083a1.265 1.265 0 0 0 1.572-1.869.577.577 0 0 0-.118-.105c-5.25-5.153-14.142-6.361-20.612-2.936a6.572 6.572 0 0 1-.632.291.88.88 0 0 0-.521.918c.048.275.077.541.089.765zm-36.985-28.278c-7.85 1.691-13.29 3.203-19.658-1.735a2.351 2.351 0 0 0-.668-.286 1.052 1.052 0 0 0-1.318 1.32l.031.027c3.958 4.85 11.363 5.606 17.812 3.93 1.204-.31 2.39-.687 3.552-1.13.668-.26.484-.898.569-1.876a.261.261 0 0 0-.32-.25zm-2.35-19.295l.743.67-14.604 16.22-.743-.67z"/><path d="M580.541 636.238l.743.669-11.849 13.16-.743-.67zm-.034 6.675l.743.67-5.175 5.747-.744-.67zm49.077 37.483l.743.669-11.85 13.16-.742-.67zm-6.631.737l.744.669-5.175 5.747-.744-.669zm-14.933-22.928l.744.669-14.604 16.22-.744-.67zm2.427 4.96l.743.67-11.849 13.159-.743-.67zm-.035 6.675l.743.67-5.175 5.747-.743-.669zm-6.611-15.435l.743.67-14.604 16.22-.743-.67zm-5.186-1.893l.743.669-11.849 13.16-.743-.67zm-6.635.732l.743.67-5.175 5.747-.743-.67z"/></g><g opacity=".126"><path d="M947.685 719.887a.341.341 0 0 0-.413.36c.15 1.385.309 2.832.442 4.116a18.677 18.677 0 0 1-23.254 19.993c-5.298-1.375-10.573-2.806-15.878-4.148-5.464-1.373-10.606-.633-15.134 2.904a1.25 1.25 0 0 0 1.436 2.039l.025-.022a17.54 17.54 0 0 1 14.388-2.132c4.727 1.208 9.645 2.045 14.176 3.812 13.294 5.172 30.707-7.883 26.43-25.137a6.633 6.633 0 0 0-.264-.975.83.83 0 0 0-.618-.527l-1.336-.283z"/><path d="M971.035 715.476c-5.144 3.196-10.525 3.834-16.33 2.11-4.263-1.256-7.014-1.647-11.553-3.097-13.972-5.096-31.986 6.655-27.787 24.705l.103.424c.077.408.39.732.795.823.364.092.7.163 1.012.247a.495.495 0 0 0 .605-.527c-.104-1.292-.217-2.584-.316-3.88-1.048-13.682 10.182-23.126 23.495-19.716 5.388 1.377 10.749 2.866 16.144 4.21a17.112 17.112 0 0 0 15.105-3.233c.073-.051.14-.11.201-.176a1.21 1.21 0 0 0-1.474-1.89z"/><path d="M948.383 714.115a.702.702 0 0 0 .737-.783 93.415 93.415 0 0 0-.17-1.358c-1.096-6.897-.752-11.75 4.575-16.957l.09-.079a1.23 1.23 0 0 0-1.618-1.739.562.562 0 0 0-.116.101c-5.596 4.458-7.817 12.9-5.277 19.553.08.211.149.426.206.645a.856.856 0 0 0 .824.612c.272-.014.532-.01.749.005zm-31.688 32.357c.702 7.78 1.517 13.212-4.005 18.775-.15.184-.27.39-.356.61a1.023 1.023 0 0 0 1.118 1.43l.03-.027c5.152-3.247 6.76-10.306 5.906-16.732a31.99 31.99 0 0 0-.67-3.563c-.171-.676-.809-.574-1.743-.772a.254.254 0 0 0-.28.28zm-18.907-.019l.755-.656 13.929 16.024-.755.656z"/><path d="M902.864 744.7l.754-.657 11.302 13.001-.755.656zm6.441.824l.754-.656 4.936 5.678-.755.656zm42.007-42.94l.755-.656 11.301 13-.754.656zm-.074 6.488l.755-.656 4.935 5.678-.755.656zm-23.906 11.7l.754-.656 13.929 16.023-.755.656zm5.076-1.755l.754-.656 11.302 13-.755.657zm6.44.825l.755-.656 4.936 5.678-.755.656zm-15.685 4.553l.755-.656 13.929 16.024-.755.656zm-2.443 4.783l.754-.656 11.301 13-.754.656zm-.08 6.492l.754-.655 4.936 5.677-.755.656z"/></g><g opacity=".1"><path d="M1268.165 534.461a.341.341 0 0 0-.475.274c-.117 1.388-.237 2.84-.351 4.126a18.677 18.677 0 0 1-26.642 15.188c-4.938-2.36-9.843-4.772-14.794-7.102-5.102-2.39-10.291-2.645-15.41-.037a1.25 1.25 0 0 0 1.02 2.276l.029-.017a17.54 17.54 0 0 1 14.53.653c4.41 2.087 9.078 3.847 13.189 6.446 12.063 7.614 31.646-1.878 30.74-19.631a6.633 6.633 0 0 0-.073-1.008.83.83 0 0 0-.506-.635l-1.257-.533z"/><path d="M1291.927 534.587c-5.659 2.155-11.063 1.754-16.432-1.045-3.946-2.046-6.57-2.955-10.75-5.245-12.743-7.668-32.668.43-31.99 18.949l.02.436a1.04 1.04 0 0 0 .623.96c.34.16.656.293.946.435a.495.495 0 0 0 .695-.401c.144-1.288.28-2.579.43-3.87 1.581-13.63 14.407-20.757 26.825-14.87 5.026 2.38 10.005 4.864 15.044 7.213a17.112 17.112 0 0 0 15.444-.292c.082-.036.16-.08.232-.134a1.21 1.21 0 0 0-1.087-2.136z"/><path d="M1269.951 528.928a.702.702 0 0 0 .873-.627c.04-.548.084-1.192.092-1.366.24-6.98 1.504-11.678 7.726-15.773l.105-.06a1.23 1.23 0 0 0-1.257-2.016.562.562 0 0 0-.133.077c-6.345 3.308-10.136 11.172-8.912 18.187.039.223.065.447.08.672a.856.856 0 0 0 .692.759c.27.037.524.091.734.147zm-37.28 25.717c-.795 7.77-1.032 13.259-7.514 17.665a2.287 2.287 0 0 0-.465.531 1.023 1.023 0 0 0 .825 1.617l.034-.02c5.677-2.205 8.602-8.827 8.99-15.298a31.99 31.99 0 0 0 .022-3.626c-.04-.696-.685-.717-1.564-1.09a.254.254 0 0 0-.328.22z"/><path d="M1219.432 550.265l.866-.5 8.613 14.918-.866.5zm6.166 2.039l.866-.5 3.761 6.515-.866.5zm49.429-34.136l.866-.5 8.613 14.918-.866.5zm-1.311 6.355l.866-.5 3.761 6.515-.866.5zm-25.7 6.923l.866-.5 10.616 18.387-.866.5zm5.318-.754l.866-.5 8.613 14.918-.866.5zm6.165 2.038l.866-.5 3.762 6.516-.867.5zm-16.266 1.478l.866-.5 10.616 18.386-.866.5zm-3.311 4.228l.866-.5 8.613 14.918-.866.5zm-1.318 6.358l.866-.5 3.762 6.515-.866.5z"/></g><g opacity=".109"><path d="M1450.325 385.926a.327.327 0 0 0-.48.214c-.25 1.31-.51 2.682-.747 3.896a17.891 17.891 0 0 1-26.906 11.804c-4.47-2.746-8.902-5.536-13.387-8.254-4.623-2.79-9.542-3.553-14.681-1.58a1.198 1.198 0 0 0 .745 2.27l.029-.012a16.804 16.804 0 0 1 13.78 2.08c3.994 2.431 8.266 4.577 11.923 7.467 10.734 8.467 30.344 1.385 31.255-15.627a6.36 6.36 0 0 0 .032-.968.795.795 0 0 0-.418-.656l-1.145-.634z"/><path d="M1472.336 388.592c-5.569 1.467-10.652.524-15.47-2.703-3.543-2.36-5.943-3.5-9.683-6.116-11.34-8.634-30.998-2.982-32.133 14.742l-.023.418a1.01 1.01 0 0 0 .5.98c.305.188.592.348.854.513a.469.469 0 0 0 .697-.31c.26-1.213.512-2.43.778-3.645 2.807-12.83 15.645-18.292 26.847-11.39 4.534 2.79 9.013 5.676 13.563 8.438 4.418 2.763 9.861 3.255 14.663 1.326.08-.026.158-.06.232-.104.502-.278.721-.887.513-1.429a1.16 1.16 0 0 0-1.338-.72z"/><path d="M1451.927 380.292a.644.644 0 0 0 .868-.499c.085-.513.185-1.116.208-1.28.846-6.563 2.442-10.863 8.598-14.058l.102-.045a1.17 1.17 0 0 0 .266-1.39 1.167 1.167 0 0 0-1.255-.649.51.51 0 0 0-.13.059c-6.2 2.439-10.43 9.455-9.918 16.21.016.213.02.428.014.642a.83.83 0 0 0 .577.791c.247.065.48.143.67.219zm-37.565 21.422c-1.544 7.21-2.33 12.332-8.89 15.846a2.186 2.186 0 0 0-.494.453.96.96 0 0 0 .612 1.594l.035-.015c5.577-1.526 9.012-7.456 10.04-13.485.195-1.125.326-2.26.392-3.398.034-.656-.572-.737-1.363-1.17a.242.242 0 0 0-.332.175z"/><path d="M1402.242 396.053l.914-.407 6.507 14.617-.913.407zm5.281 2.027l.914-.407 2.847 6.395-.914.407zm54.2-30.699l.913-.407 8.135 18.271-.914.407zm-3.755 3.861l.914-.407 6.508 14.617-.914.407zm-2.027 5.281l.914-.407 2.847 6.395-.914.407zm-24.365 4.281l.913-.407 8.135 18.27-.914.407zm4.467.2l.914-.407 6.507 14.617-.913.406zm6.195 1.62l.913-.407 2.848 6.395-.914.407zm-16.144.62l.914-.407 8.135 18.271-.914.407zm-2.84 3.454l.913-.407 6.508 14.617-.914.407zm-2.028 5.282l.914-.408 2.847 6.395-.914.407z"/></g><g opacity=".109"><path d="M868.325 440.926a.327.327 0 0 0-.48.214c-.25 1.31-.51 2.682-.747 3.896a17.891 17.891 0 0 1-26.906 11.804c-4.47-2.746-8.902-5.536-13.387-8.254-4.623-2.79-9.542-3.553-14.681-1.58a1.198 1.198 0 0 0 .745 2.27l.029-.012a16.804 16.804 0 0 1 13.78 2.08c3.994 2.431 8.266 4.577 11.923 7.467 10.734 8.467 30.344 1.385 31.255-15.627a6.36 6.36 0 0 0 .032-.968.795.795 0 0 0-.418-.656l-1.145-.634z"/><path d="M890.336 443.592c-5.569 1.467-10.652.524-15.47-2.703-3.543-2.36-5.943-3.5-9.683-6.116-11.34-8.634-30.998-2.982-32.133 14.742l-.023.418a1.01 1.01 0 0 0 .5.98c.305.188.592.348.854.513a.469.469 0 0 0 .697-.31c.26-1.213.512-2.43.778-3.645 2.807-12.83 15.645-18.292 26.847-11.39 4.534 2.79 9.013 5.676 13.563 8.438 4.418 2.763 9.861 3.255 14.663 1.326.08-.026.158-.06.232-.104.502-.278.721-.887.513-1.429a1.16 1.16 0 0 0-1.338-.72z"/><path d="M869.927 435.292a.644.644 0 0 0 .868-.499c.085-.513.185-1.116.208-1.28.846-6.563 2.442-10.863 8.598-14.058l.102-.045a1.17 1.17 0 0 0 .266-1.39 1.167 1.167 0 0 0-1.255-.649.51.51 0 0 0-.13.059c-6.2 2.439-10.43 9.455-9.918 16.21.016.213.02.428.014.642a.83.83 0 0 0 .577.791c.247.065.48.143.67.219zm-37.565 21.422c-1.544 7.21-2.33 12.332-8.89 15.846a2.186 2.186 0 0 0-.494.453.96.96 0 0 0 .612 1.594l.035-.015c5.577-1.526 9.012-7.456 10.04-13.485.195-1.125.326-2.26.392-3.398.034-.656-.572-.737-1.363-1.17a.242.242 0 0 0-.332.175z"/><path d="M820.242 451.053l.914-.407 6.507 14.617-.913.407zm5.281 2.027l.914-.407 2.847 6.395-.914.407zm54.2-30.699l.913-.407 8.135 18.271-.914.407zm-3.755 3.861l.914-.407 6.508 14.617-.914.407zm-2.027 5.281l.914-.407 2.847 6.395-.914.407zm-24.365 4.281l.913-.407 8.135 18.27-.914.407zm4.467.2l.914-.407 6.507 14.617-.913.406zm6.195 1.62l.913-.407 2.848 6.395-.914.407zm-16.144.62l.914-.407 8.135 18.271-.914.407zm-2.84 3.454l.913-.407 6.508 14.617-.914.407zm-2.028 5.282l.914-.408 2.847 6.395-.914.407z"/></g><g opacity=".072"><path d="M1388.8 684.871a.361.361 0 0 0-.47-.341c-1.395.484-2.851.994-4.146 1.437a19.791 19.791 0 0 1-26.186-19.244c.157-5.798.377-11.586.499-17.383.115-5.969-1.875-11.102-6.607-14.934a1.325 1.325 0 0 0-1.763 1.969l.029.02a18.587 18.587 0 0 1 5.63 14.348c-.12 5.168.189 10.446-.556 15.546-2.17 14.96 15.459 29.826 32.254 21.297a7.03 7.03 0 0 0 .945-.505.879.879 0 0 0 .397-.763l-.027-1.447z"/><path d="M1398.92 707.928c-4.526-4.549-6.467-9.953-6.071-16.358.28-4.7.028-7.634.444-12.666 1.93-15.642-14.497-31.44-32.133-22.802l-.413.207a1.105 1.105 0 0 0-.66 1.018c-.009.397-.002.761-.014 1.103a.524.524 0 0 0 .688.5c1.31-.416 2.617-.841 3.931-1.252 13.877-4.344 26.305 5 25.957 19.56-.137 5.89-.396 11.781-.498 17.672a18.133 18.133 0 0 0 6.94 14.825c.07.063.146.12.228.166a1.283 1.283 0 0 0 1.6-1.973z"/><path d="M1394.925 684.215a.744.744 0 0 0 .984.575 98.99 98.99 0 0 0 1.362-.5c6.86-2.776 11.953-3.577 18.599.682l.103.075a1.304 1.304 0 0 0 1.41-2.085.595.595 0 0 0-.132-.096c-5.937-4.716-15.184-4.997-21.447-.789a6.774 6.774 0 0 1-.616.367.907.907 0 0 0-.436.997c.08.277.137.547.173.774zm-40.963-25.005c-7.865 2.58-13.28 4.716-20.34.34a2.423 2.423 0 0 0-.715-.222 1.084 1.084 0 0 0-1.209 1.496l.035.025c4.58 4.545 12.252 4.522 18.683 2.108a33.9 33.9 0 0 0 3.52-1.541c.657-.338.4-.972.381-1.983a.27.27 0 0 0-.355-.223z"/><path d="M1352.496 644.507l.809.587-10.73 14.768-.809-.588zm.684 6.847l.809.588-4.686 6.45-.81-.588zm54.35 33.137l.81.588-10.73 14.768-.81-.588zm-6.717 1.471l.809.588-4.686 6.45-.809-.589zm-17.779-21.895l.809.588-13.224 18.201-.81-.588zm3.022 4.823l.809.587-10.73 14.768-.809-.588zm.682 6.846l.81.588-4.686 6.45-.81-.588zm-8.439-15.109l.809.588-13.224 18.2-.81-.587zm-5.52-1.384l.809.588-10.73 14.768-.809-.588zm-6.724 1.466l.81.588-4.687 6.45-.809-.589z"/></g></symbol><symbol viewBox="0 0 18 17" id="images--star" xmlns="http://www.w3.org/2000/svg"><path d="M9.002 0l2.126 6.494h6.877l-5.564 4.012L14.566 17l-5.564-4.013L3.438 17l2.126-6.494L0 6.494h6.878z"/></symbol><symbol viewBox="0 0 18 16" id="images--telegram" xmlns="http://www.w3.org/2000/svg"><g fill-rule="evenodd"><path d="M-1287-688H153v7895h-1440z"/><path d="M.57 7.426l4.09 1.537 1.58 5.127c.102.328.5.45.765.232l2.279-1.871a.676.676 0 0 1 .828-.024l4.11 3.006a.48.48 0 0 0 .756-.293L17.989.55a.483.483 0 0 0-.645-.552L.566 6.518a.487.487 0 0 0 .004.908zm5.416.719l7.99-4.957c.144-.089.292.107.168.222L7.55 9.584a1.38 1.38 0 0 0-.423.824l-.225 1.677c-.03.224-.342.246-.403.03l-.864-3.058a.813.813 0 0 1 .351-.912z" fill-rule="nonzero"/></g></symbol><symbol viewBox="0 0 19 16" id="images--twitter-logo-silhouette" xmlns="http://www.w3.org/2000/svg"><g fill-rule="evenodd"><path d="M-1218-688H222v7895h-1440z"/><path d="M18.19 2.396a7.218 7.218 0 0 1-2.09.578 3.682 3.682 0 0 0 1.6-2.03 7.298 7.298 0 0 1-2.313.891A3.614 3.614 0 0 0 12.73.675c-2.01 0-3.64 1.644-3.64 3.672 0 .287.032.568.094.837a10.303 10.303 0 0 1-7.501-3.838 3.67 3.67 0 0 0-.492 1.846A3.68 3.68 0 0 0 2.809 6.25a3.615 3.615 0 0 1-1.648-.461v.046a3.668 3.668 0 0 0 2.919 3.6 3.655 3.655 0 0 1-.96.129c-.234 0-.461-.024-.684-.068a3.646 3.646 0 0 0 3.399 2.55 7.26 7.26 0 0 1-4.52 1.57c-.294 0-.583-.018-.868-.05a10.221 10.221 0 0 0 5.579 1.652c6.695 0 10.355-5.596 10.355-10.45l-.012-.475a7.305 7.305 0 0 0 1.82-1.897z" fill-rule="nonzero"/></g></symbol></svg>